<svg width="50" height="50" viewBox="0 0 50 50" fill="none" xmlns="http://www.w3.org/2000/svg">
<path fill-rule="evenodd" clip-rule="evenodd" d="M8.81066 2.33317H41.1916C42.9092 2.33317 44.5564 3.01548 45.771 4.23C46.9855 5.44452 47.6678 7.09177 47.6678 8.80936V41.1903C47.6678 42.9079 46.9855 44.5551 45.771 45.7697C44.5564 46.9842 42.9092 47.6665 41.1916 47.6665H8.81066C7.09307 47.6665 5.44583 46.9842 4.2313 45.7697C3.01678 44.5551 2.33447 42.9079 2.33447 41.1903V8.80936C2.33447 7.09177 3.01678 5.44452 4.2313 4.23C5.44583 3.01548 7.09307 2.33317 8.81066 2.33317Z" stroke="black" stroke-width="3.2381" stroke-linecap="round" stroke-linejoin="round"/>
<path fill-rule="evenodd" clip-rule="evenodd" d="M8.81066 8.80936H41.1916C42.9092 8.80936 44.5564 9.49167 45.771 10.7062C46.9855 11.9207 47.6678 13.568 47.6678 15.2855V8.80936C47.6678 5.57126 44.7697 2.33317 41.1916 2.33317H8.81066C5.23257 2.33317 2.33447 5.57126 2.33447 8.80936V15.2855C2.33447 13.568 3.01678 11.9207 4.2313 10.7062C5.44583 9.49167 7.09307 8.80936 8.81066 8.80936Z" fill="black" stroke="black" stroke-width="3.2381" stroke-linecap="round" stroke-linejoin="round"/>
<path d="M15.2744 24.9998H18.5125M15.2744 18.5236H28.2171M15.2744 31.476H34.6933M15.2744 37.9522H28.2171" stroke="black" stroke-width="3.2381" stroke-linecap="round" stroke-linejoin="round"/>
</svg>
