<svg width="28" height="20" viewBox="0 0 28 20" fill="none" xmlns="http://www.w3.org/2000/svg">
<path d="M25.64 3.5L20 6V3C20 2.46957 19.7893 1.96086 19.4142 1.58579C19.0391 1.21071 18.5304 1 18 1H3C2.46957 1 1.96086 1.21071 1.58579 1.58579C1.21071 1.96086 1 2.46957 1 3V17C1 17.5304 1.21071 18.0391 1.58579 18.4142C1.96086 18.7893 2.46957 19 3 19H18C18.5304 19 19.0391 18.7893 19.4142 18.4142C19.7893 18.0391 20 17.5304 20 17V14L25.64 16.5C25.7921 16.5587 25.9561 16.5793 26.118 16.5601C26.2798 16.5408 26.4345 16.4824 26.5686 16.3897C26.7027 16.297 26.8121 16.173 26.8873 16.0284C26.9624 15.8838 27.0012 15.723 27 15.56V4.44C27.0012 4.27702 26.9624 4.11623 26.8873 3.97162C26.8121 3.82702 26.7027 3.70298 26.5686 3.61032C26.4345 3.51765 26.2798 3.45915 26.118 3.43993C25.9561 3.4207 25.7921 3.44132 25.64 3.5Z" stroke="#909395" stroke-linecap="round" stroke-linejoin="round"/>
</svg>
