<svg width="24" height="23" viewBox="0 0 24 23" fill="none" xmlns="http://www.w3.org/2000/svg">
<path d="M8.7 21C8.7 21.8284 8.02843 22.5 7.2 22.5H4.2C3.37157 22.5 2.7 21.8284 2.7 21V12.7231C2.7 12.145 2.23142 11.6765 1.6534 11.6765C0.85203 11.6765 0.480093 10.6821 1.08475 10.1562L10.6875 1.80421C11.4401 1.14965 12.5599 1.14965 13.3125 1.80421L22.9152 10.1562C23.5199 10.6821 23.148 11.6765 22.3466 11.6765C21.7686 11.6765 21.3 12.145 21.3 12.7231V21C21.3 21.8284 20.6284 22.5 19.8 22.5H16.8C15.9716 22.5 15.3 21.8284 15.3 21V16.8824C15.3 15.5016 14.1807 14.3824 12.8 14.3824H11.2C9.81929 14.3824 8.7 15.5016 8.7 16.8824V21Z" stroke="#909395"/>
</svg>
