<svg width="21" height="23" viewBox="0 0 21 23" fill="none" xmlns="http://www.w3.org/2000/svg">
<path d="M14.1747 19.5781L14.3435 20.0488L14.1747 19.5781C13.1686 19.939 12.0837 20.1358 10.9517 20.1358C5.6799 20.1358 1.40625 15.8622 1.40625 10.5904C1.40625 5.31857 5.6799 1.04492 10.9517 1.04492C16.2235 1.04492 20.4972 5.31857 20.4972 10.5904C20.4972 13.4788 19.2149 16.0672 17.1868 17.8183C17.0234 17.9594 16.9251 18.1663 16.9251 18.3884V21.7692L14.9696 19.7608C14.7604 19.5459 14.4483 19.48 14.1747 19.5781Z" stroke="#909395"/>
<path d="M11.0561 14.0784C11.0561 14.3639 10.8246 14.5954 10.5391 14.5954C10.2535 14.5954 10.022 14.3639 10.022 14.0784C10.022 13.7928 10.2535 13.5613 10.5391 13.5613C10.8246 13.5613 11.0561 13.7928 11.0561 14.0784Z" fill="#909395"/>
<path d="M11.2099 6.32269C12.1537 6.32269 12.9079 6.5667 13.4724 7.05469C14.0461 7.54268 14.333 8.20932 14.333 9.05461C14.333 9.93474 14.0369 10.597 13.4446 11.0415C12.8524 11.4859 12.0658 11.7081 11.0849 11.7081L11.0815 12.2145C11.0796 12.5057 10.843 12.7407 10.5518 12.7407C10.2592 12.7407 10.022 12.5036 10.022 12.211V10.6885H11.078C11.078 10.6885 12.0496 10.4636 12.3897 10.1446C12.7299 9.82553 12.82 9.05461 12.82 9.05461C12.82 8.59276 12.6766 8.23111 12.3897 7.96969C12.1121 7.70826 11.7234 7.57754 11.2238 7.57754C10.7241 7.57754 10.3308 7.70391 10.0439 7.95661C9.9321 8.05512 9.84207 8.16885 9.77384 8.29781C9.58204 8.66033 9.28115 9.0154 8.87102 9.0154C8.46089 9.0154 8.11521 8.67702 8.22025 8.28058C8.28271 8.04486 8.37702 7.82359 8.50319 7.61676C8.75304 7.20719 9.10931 6.88911 9.57198 6.66255C10.0439 6.43598 10.5899 6.32269 11.2099 6.32269Z" fill="#909395"/>
</svg>
