<svg width="28" height="22" viewBox="0 0 28 22" fill="none" xmlns="http://www.w3.org/2000/svg">
<path d="M8.40993 21C8.45697 21.1696 8.51418 21.3366 8.58138 21.5H1.75C0.58275 21.5 0 20.9172 0 19.75C0 18 1.75 12.75 8.75 12.75C9.16252 12.7494 9.57483 12.7687 9.9855 12.8077C10.5123 12.856 11.0343 12.9447 11.5469 13.0731C11.3884 13.2049 11.2352 13.3406 11.0875 13.4798M8.40993 21H8.93137C8.80403 20.597 8.7424 20.1749 8.75 19.75M8.40993 21H1.75C1.24326 21 0.955494 20.8738 0.790835 20.7092C0.626176 20.5445 0.5 20.2567 0.5 19.75C0.5 18.9946 0.894622 17.36 2.12963 15.9191C3.34417 14.5022 5.39134 13.25 8.75 13.25L8.75069 13.25C9.14718 13.2494 9.54346 13.268 9.93817 13.3055L9.93992 13.3057C10.3258 13.341 10.709 13.3992 11.0875 13.4798M8.40993 21C8.29707 20.593 8.24284 20.1706 8.25 19.7456M8.75 19.75C8.75 17.9825 9.40975 16.1765 10.6575 14.668M8.75 19.75H8.25C8.25 19.7485 8.25 19.7471 8.25 19.7456M8.75 19.75L8.25008 19.7411C8.25005 19.7426 8.25003 19.7441 8.25 19.7456M10.6575 14.668C10.9609 14.301 11.2998 13.9509 11.6725 13.6234C11.479 13.5696 11.2839 13.5217 11.0875 13.4798M10.6575 14.668L10.2722 14.3493M10.6575 14.668L10.2721 14.3495C10.2721 14.3494 10.2722 14.3494 10.2722 14.3493M11.0875 13.4798C10.7939 13.7566 10.5218 14.0474 10.2722 14.3493M10.2722 14.3493C8.95649 15.94 8.25109 17.8554 8.25 19.7456M27.5 19.75C27.5 20.1 27.4139 20.3293 27.3105 20.4844C27.2051 20.6426 27.0608 20.7543 26.9014 20.834C26.74 20.9147 26.5726 20.9576 26.4412 20.9795C26.3768 20.9902 26.3241 20.9954 26.2896 20.9979C26.2724 20.9991 26.2599 20.9996 26.253 20.9999L26.2484 21L26.2491 21H26.2474H12.2526H12.2509L12.2516 21L12.247 20.9999C12.2401 20.9996 12.2276 20.9991 12.2104 20.9979C12.1759 20.9954 12.1232 20.9902 12.0588 20.9795C11.9274 20.9576 11.76 20.9147 11.5986 20.834C11.4392 20.7543 11.2949 20.6426 11.1895 20.4844C11.0861 20.3293 11 20.1 11 19.75C11 18.9946 11.3946 17.36 12.6296 15.9191C13.8442 14.5022 15.8913 13.25 19.25 13.25C22.6087 13.25 24.6558 14.5022 25.8704 15.9191C27.1054 17.36 27.5 18.9946 27.5 19.75ZM24 5.75C24 6.37378 23.8771 6.99145 23.6384 7.56775C23.3997 8.14404 23.0498 8.66768 22.6088 9.10876C22.1677 9.54984 21.644 9.89972 21.0677 10.1384C20.4915 10.3771 19.8738 10.5 19.25 10.5C18.6262 10.5 18.0085 10.3771 17.4323 10.1384C16.856 9.89972 16.3323 9.54984 15.8912 9.10876C15.4502 8.66768 15.1003 8.14404 14.8616 7.56775C14.6229 6.99145 14.5 6.37378 14.5 5.75C14.5 4.49022 15.0004 3.28204 15.8912 2.39124C16.782 1.50045 17.9902 1 19.25 1C20.5098 1 21.718 1.50045 22.6088 2.39124C23.4996 3.28204 24 4.49022 24 5.75ZM3.125 6.625C3.125 5.36522 3.62545 4.15704 4.51624 3.26624C5.40704 2.37545 6.61522 1.875 7.875 1.875C9.13478 1.875 10.343 2.37545 11.2338 3.26624C12.1246 4.15704 12.625 5.36522 12.625 6.625C12.625 7.88478 12.1246 9.09296 11.2338 9.98376C10.343 10.8746 9.13478 11.375 7.875 11.375C6.61522 11.375 5.40704 10.8746 4.51624 9.98376C3.62545 9.09296 3.125 7.88478 3.125 6.625Z" stroke="#909395"/>
</svg>
