<svg width="30" height="30" viewBox="0 0 30 30" fill="none" xmlns="http://www.w3.org/2000/svg">
<path d="M13.3223 10.3389C13.9523 10.7476 14.41 11.1886 14.657 11.5H18.7529C19.3724 11.5 19.8747 12.0022 19.8747 12.6218C19.8747 13.2413 19.3724 13.7436 18.7529 13.7436H13.3223V18.2308H26.8832C27.4355 18.2308 27.8832 17.783 27.8832 17.2308V3.0769C27.8832 2.52462 27.4355 2.0769 26.8832 2.0769H13.3223V10.3389Z" fill="#4B65F6"/>
<path d="M10.9244 28.9996V13.8638C10.9244 13.066 11.8128 12.5894 12.4775 13.0307L12.9315 13.3321C13.5872 13.7674 14.3568 13.9996 15.1439 13.9996H18.7122C19.4026 13.9996 19.9622 13.44 19.9622 12.7496C19.9622 12.0593 19.4026 11.4996 18.7122 11.4996H17.3608C16.1485 11.4996 15.0154 10.9109 14.0009 10.2473C13.2273 9.74117 12.2141 9.27241 11.0202 9.08536C10.3064 8.97353 9.59269 9.1953 8.9725 9.56587L7.92259 10.1932C7.60669 10.3819 7.21266 10.3819 6.89677 10.1932L5.55978 9.39434C5.12745 9.13603 4.63324 8.99963 4.12962 8.99963C2.58968 8.99963 1.34131 10.248 1.34131 11.7879V14.9996V19.7228C1.34131 20.428 1.91296 20.9997 2.61814 20.9997C3.32331 20.9997 3.89497 21.5713 3.89497 22.2765V28.9996H7.40967H10.9244Z" fill="#4B65F6"/>
<path d="M9.96023 5.84612C9.96023 7.33304 8.70654 8.53842 7.16004 8.53842C5.61355 8.53842 4.35986 7.33304 4.35986 5.84612C4.35986 4.3592 5.61355 3.15381 7.16004 3.15381C8.70654 3.15381 9.96023 4.3592 9.96023 5.84612Z" fill="#4B65F6"/>
<path d="M3.89497 29V21M3.89497 13V19.5V21M10.9244 29V13.8642C10.9244 13.0664 11.8128 12.5898 12.4775 13.0311L12.9315 13.3325C13.5872 13.7678 14.3568 14 15.1439 14H18.7122C19.4026 14 19.9622 13.4403 19.9622 12.75V12.75C19.9622 12.0596 19.4026 11.5 18.7122 11.5H17.3608C16.1485 11.5 15.0153 10.9112 14.0008 10.2476C13.9797 10.2338 13.9584 10.22 13.937 10.2063C13.1717 9.71609 12.1813 9.26758 11.0199 9.08566C10.3061 8.97387 9.59269 9.19566 8.9725 9.56622L7.92259 10.1935C7.60669 10.3823 7.21266 10.3823 6.89676 10.1935L5.55978 9.39469C5.12745 9.13638 4.63324 8.99999 4.12962 8.99999V8.99999C2.58968 8.99999 1.34131 10.2484 1.34131 11.7883V15V18.4464C1.34131 19.8567 2.48462 21 3.89497 21V21M7.40967 29V19M15.4433 7.50001H19.9622M15.4433 4H23.979M13.937 19.3077H28C28.5523 19.3077 29 18.86 29 18.3077V2C29 1.44772 28.5523 1 28 1H13.937H12.9328" stroke="white" stroke-linecap="round"/>
<path d="M25.603 29H12.0462H8.53152H5.01681H1" stroke="#4B65F6" stroke-linecap="round"/>
<path d="M21.0698 11.6157L25.5192 6.6311" stroke="white" stroke-linecap="round"/>
</svg>
