<svg width="30" height="30" viewBox="0 0 30 30" fill="none" xmlns="http://www.w3.org/2000/svg">
<path d="M3.89497 29V21M3.89497 13V19.5V21M10.9244 29V13.8642C10.9244 13.0664 11.8128 12.5898 12.4775 13.0311L12.9315 13.3325C13.5872 13.7678 14.3568 14 15.1439 14H18.7122C19.4026 14 19.9622 13.4403 19.9622 12.75V12.75C19.9622 12.0596 19.4026 11.5 18.7122 11.5H17.3608C16.1485 11.5 15.0153 10.9112 14.0008 10.2476C13.9797 10.2338 13.9584 10.22 13.937 10.2063C13.1717 9.71609 12.1813 9.26758 11.0199 9.08566C10.3061 8.97387 9.59269 9.19566 8.9725 9.56622L7.92259 10.1935C7.60669 10.3823 7.21266 10.3823 6.89676 10.1935L5.55978 9.39469C5.12745 9.13638 4.63324 8.99999 4.12962 8.99999V8.99999C2.58968 8.99999 1.34131 10.2484 1.34131 11.7883V15V18.4464C1.34131 19.8567 2.48462 21 3.89497 21V21M7.40967 29V19M15.4433 7.50001H19.9622M15.4433 4H23.979M13.937 19.3077H28C28.5523 19.3077 29 18.86 29 18.3077V2C29 1.44772 28.5523 1 28 1H13.937H12.9328" stroke="white" stroke-linecap="round"/>
</svg>
